<svg width="100" height="100" viewBox="0 0 100 100" fill="none" xmlns="http://www.w3.org/2000/svg">
<g clip-path="url(#clip0_1_2)">
<circle cx="49.5" cy="49.5" r="45.5" fill="#13341E"/>
<path d="M3 64.6559C5.59425 65.0639 8.1885 65.472 23.9299 64.7301C39.6712 63.9882 68.4811 62.0841 83.5273 61.0351C98.5736 59.9862 98.9832 59.8502 97.3509 60.1202C95.7186 60.3901 92.0321 61.0702 82.4867 63.4607C72.9414 65.8512 57.6489 69.9315 45.1969 72.5775C32.7449 75.2235 23.5968 76.3116 18.3379 77.0081C13.0791 77.7047 11.9868 77.9767 14.9058 78.6609C17.8249 79.3451 24.7884 80.4331 38.7527 81.0617C52.717 81.6902 73.471 81.8262 83.4797 81.9643C93.4885 82.1024 92.1231 82.2384 85.8899 84.2806C79.6566 86.3228 68.5969 90.2671 62.0803 92.8431C55.5636 95.419 53.9251 96.5071 53.4907 96.8636C53.0562 97.2201 53.8755 96.8121 54.7195 96.3917" stroke="#FF8D01" stroke-width="5" stroke-linecap="round"/>
</g>
<defs>
<clipPath id="clip0_1_2">
<rect width="100" height="100" fill="white"/>
</clipPath>
</defs>
</svg>
